<svg data-v-423bf9ae="" xmlns="http://www.w3.org/2000/svg" viewBox="0 0 533 90" class="iconLeft"><!----><defs data-v-423bf9ae=""><linearGradient data-v-423bf9ae="" gradientTransform="rotate(25)" id="15ced7fc-a7b1-4b74-a96a-3c08ce16067b" x1="0%" y1="0%" x2="100%" y2="0%"><stop data-v-423bf9ae="" offset="0%" style="stop-color: rgb(54, 22, 172); stop-opacity: 1;"></stop><stop data-v-423bf9ae="" offset="100%" style="stop-color: rgb(224, 155, 237); stop-opacity: 1;"></stop></linearGradient></defs><!----><g data-v-423bf9ae="" id="f07db784-8224-4655-b036-0a3acc202468" fill="#ffffff" transform="matrix(4.048582818792171,0,0,4.048582818792171,108.54251403055483,13.17813739092832)"><path d="M11.03 8.05L11.03 8.05L11.03 8.05Q11.03 9.10 9.53 10.79L9.53 10.79L9.53 10.79Q7.98 12.54 6.85 12.54L6.85 12.54L6.85 12.54Q6.15 12.54 4.67 12.01L4.67 12.01L4.67 12.01Q3.19 11.48 1.95 11.48L1.95 11.48L1.95 11.48Q1.29 11.48 1.04 11.66L1.04 11.66L1.04 11.66Q0.70 11.91 0.45 11.97L0.45 11.97L0.45 11.97Q0.36 11.89 0.36 11.86L0.36 11.86L0.36 11.86Q0.36 11.35 1.43 10.35L1.43 10.35L1.43 10.35Q2.42 9.39 2.76 9.37L2.76 9.37L2.76 9.37Q2.84 9.37 3.15 9.27L3.15 9.27L3.15 9.27Q3.46 9.18 4.12 9.18L4.12 9.18L4.12 9.18Q5.29 9.18 5.98 9.39L5.98 9.39L5.98 9.39Q7.85 10.02 8.71 10.23L8.71 10.23L8.71 10.23Q8.72 10.22 8.72 10.09L8.72 10.09L8.72 10.09Q8.72 9.39 7.99 8.69L7.99 8.69L7.99 8.69Q7.25 7.98 6.51 7.98L6.51 7.98L5.42 7.98L5.42 7.98Q5.38 7.98 5.29 7.92L5.29 7.92L5.29 7.92Q5.21 7.87 5.17 7.87L5.17 7.87L4.14 7.87L4.14 7.87Q3.93 7.87 2.97 7.49L2.97 7.49L2.97 7.49Q2.18 7.18 1.97 7.07L1.97 7.07L1.97 7.07Q1.71 6.94 1.41 6.30L1.41 6.30L1.41 6.30Q1.15 5.70 1.15 5.42L1.15 5.42L1.15 5.42Q1.15 4.54 1.85 3.53L1.85 3.53L1.85 3.53Q2.52 2.59 3.60 1.81L3.60 1.81L3.60 1.81Q3.88 1.55 4.17 1.30L4.17 1.30L4.17 1.30Q4.66 0.88 4.89 0.88L4.89 0.88L4.89 0.88Q4.96 0.88 5.00 0.92L5.00 0.92L5.00 0.92Q5.12 1.05 5.83 1.39L5.83 1.39L5.83 1.39Q6.54 1.74 6.69 1.74L6.69 1.74L6.69 1.74Q6.73 1.74 6.76 1.72L6.76 1.72L6.76 1.72Q6.79 1.71 6.83 1.71L6.83 1.71L6.83 1.71Q6.86 1.71 7.08 1.82L7.08 1.82L7.08 1.82Q7.29 1.93 7.39 1.95L7.39 1.95L7.39 1.95Q8.71 2.17 9.30 2.17L9.30 2.17L9.30 2.17Q9.70 2.17 9.75 2.15L9.75 2.15L9.75 2.15Q9.80 2.13 10.37 1.85L10.37 1.85L10.58 1.90L10.58 1.90Q10.08 3.00 9.09 3.73L9.09 3.73L9.09 3.73Q8.11 4.47 7.20 4.47L7.20 4.47L7.20 4.47Q5.98 4.47 5.04 4.20L5.04 4.20L5.04 4.20Q3.68 3.81 3.58 3.78L3.58 3.78L3.58 3.78Q3.70 4.05 3.81 4.30L3.81 4.30L3.81 4.30Q3.98 4.63 4.19 4.75L4.19 4.75L4.19 4.75Q5.74 5.56 6.82 5.56L6.82 5.56L6.82 5.56Q6.85 5.56 6.99 5.54L6.99 5.54L6.99 5.54Q7.14 5.53 7.18 5.53L7.18 5.53L7.18 5.53Q7.22 5.53 7.50 5.60L7.50 5.60L7.50 5.60Q7.78 5.67 7.83 5.67L7.83 5.67L8.85 5.67L8.85 5.67Q9.39 5.67 10.12 6.27L10.12 6.27L10.12 6.27Q10.84 6.87 10.91 7.35L10.91 7.35L10.91 7.35Q10.93 7.50 10.98 7.61L10.98 7.61L10.98 7.61Q11.03 7.71 11.03 8.05ZM20.41 7.03L20.41 7.03L20.41 7.03Q20.41 8.20 19.04 9.55L19.04 9.55L19.04 9.55Q17.67 10.78 16.31 12.01L16.31 12.01L16.31 12.01Q16.16 12.17 15.65 12.26L15.65 12.26L15.65 12.26Q15.20 12.36 14.84 12.36L14.84 12.36L14.84 12.36Q13.86 12.36 12.98 11.56L12.98 11.56L12.98 11.56Q12.05 10.72 12.05 9.67L12.05 9.67L12.05 9.67Q12.05 8.26 13.17 6.47L13.17 6.47L13.17 6.47Q14.34 4.61 15.76 3.89L15.76 3.89L15.76 3.89Q15.78 3.92 15.76 4.06L15.76 4.06L15.76 4.06Q15.76 4.17 15.82 4.17L15.82 4.17L15.82 4.17Q15.96 4.17 16.50 4.03L16.50 4.03L16.50 4.03Q17.04 3.89 17.47 3.89L17.47 3.89L17.47 3.89Q18.73 3.89 19.60 4.89L19.60 4.89L19.60 4.89Q20.41 5.82 20.41 7.03ZM18.26 9.32L18.26 9.32L18.26 8.29L18.26 8.29Q18.26 7.77 17.52 6.97L17.52 6.97L17.52 6.97Q16.79 6.17 16.34 6.09L16.34 6.09L16.34 6.09Q15.75 5.99 15.57 5.99L15.57 5.99L15.57 5.99Q14.69 5.99 14.41 6.45L14.41 6.45L14.41 6.45Q14.21 6.79 14.21 7.76L14.21 7.76L14.21 7.76Q14.21 8.71 15.04 9.48L15.04 9.48L15.04 9.48Q15.86 10.25 16.74 10.25L16.74 10.25L16.74 10.25Q17.23 10.25 17.43 10.12L17.43 10.12L17.43 10.12Q17.57 10.04 18.26 9.32ZM26.04 9.95L26.04 9.95L26.04 9.95Q26.04 10.51 24.89 11.61L24.89 11.61L24.89 11.61Q23.81 12.61 23.51 12.66L23.51 12.66L23.51 12.66Q23.41 12.53 22.88 12.11L22.88 12.11L22.88 12.11Q22.58 11.87 22.58 11.55L22.58 11.55L22.58 7.41L22.58 7.41Q22.58 7.38 22.62 7.19L22.62 7.19L22.62 7.19Q22.67 7.00 22.67 6.94L22.67 6.94L22.67 3.92L22.67 3.92Q22.46 3.61 22.27 3.44L22.27 3.44L22.27 3.44Q21.84 3.74 21.41 3.93L21.41 3.93L21.41 3.93Q21.35 3.88 21.35 3.75L21.35 3.75L21.35 3.75Q21.35 3.30 22.43 2.24L22.43 2.24L22.43 2.24Q23.51 1.18 23.97 1.18L23.97 1.18L23.97 1.18Q24.09 1.18 24.43 1.48L24.43 1.48L24.43 1.48Q24.77 1.79 24.77 1.93L24.77 1.93L24.77 5.28L24.77 5.28Q24.77 5.32 24.72 5.43L24.72 5.43L24.72 5.43Q24.68 5.54 24.68 5.60L24.68 5.60L24.68 9.59L24.68 9.59Q24.68 9.72 24.89 9.97L24.89 9.97L24.89 9.97Q25.10 10.22 25.24 10.22L25.24 10.22L25.24 10.22Q25.27 10.22 25.54 10.04L25.54 10.04L25.54 10.04Q25.80 9.87 25.98 9.81L25.98 9.81L25.98 9.81Q26.04 9.87 26.04 9.95ZM35.48 10.44L35.48 10.44L35.48 10.44Q35.36 10.77 34.55 11.68L34.55 11.68L34.55 11.68Q33.67 12.68 33.26 12.68L33.26 12.68L33.26 12.68Q33.21 12.68 32.59 12.11L32.59 12.11L32.59 12.11Q31.93 11.51 31.91 11.28L31.91 11.28L31.91 11.28Q31.54 11.76 30.63 12.22L30.63 12.22L30.63 12.22Q29.72 12.68 29.20 12.68L29.20 12.68L29.20 12.68Q28.32 12.68 27.72 11.89L27.72 11.89L27.72 11.89Q27.20 11.20 27.20 10.46L27.20 10.46L27.20 10.46Q27.20 8.64 28.84 6.72L28.84 6.72L28.84 6.72Q30.30 5.01 31.60 4.65L31.60 4.65L31.60 4.65Q31.64 4.63 31.79 4.55L31.79 4.55L31.79 4.55Q31.95 4.47 32.00 4.47L32.00 4.47L32.00 4.47Q31.99 4.47 32.40 4.75L32.40 4.75L32.40 4.75Q32.82 5.04 33.31 5.04L33.31 5.04L33.31 5.04Q33.82 5.04 34.05 4.93L34.05 4.93L34.05 4.93Q34.23 4.83 34.47 4.86L34.47 4.86L34.47 4.86Q34.51 5.19 33.82 5.85L33.82 5.85L33.82 7.04L33.82 7.04Q33.82 7.10 33.87 7.24L33.87 7.24L33.87 7.24Q33.91 7.38 33.91 7.42L33.91 7.42L33.91 9.59L33.91 9.59Q34.27 9.94 34.97 10.58L34.97 10.58L34.97 10.58Q35.35 10.42 35.48 10.44ZM31.93 10.39L31.93 10.39L31.93 9.37L31.93 9.37Q31.93 9.31 31.89 9.17L31.89 9.17L31.89 9.17Q31.85 9.03 31.85 8.99L31.85 8.99L31.85 7.07L31.85 7.07Q31.82 7.06 31.29 7.06L31.29 7.06L31.29 7.06Q31.04 7.06 30.66 6.79L30.66 6.79L30.66 6.79Q30.39 6.59 30.13 6.40L30.13 6.40L30.13 6.40Q29.69 6.62 29.41 7.42L29.41 7.42L29.41 7.42Q29.18 8.09 29.18 8.67L29.18 8.67L29.18 8.67Q29.18 9.31 29.65 9.95L29.65 9.95L29.65 9.95Q30.20 10.71 30.97 10.71L30.97 10.71L30.97 10.71Q31.28 10.71 31.93 10.39ZM44.32 4.54L44.55 4.54L44.55 4.54Q44.25 5.38 43.27 6.20L43.27 6.20L43.27 6.20Q42.29 7.03 41.48 7.03L41.48 7.03L41.48 7.03Q40.89 7.03 40.59 6.90L40.59 6.90L40.59 6.90Q40.21 6.73 39.93 6.27L39.93 6.27L39.93 6.27Q39.68 6.44 39.47 6.66L39.47 6.66L39.47 10.11L39.47 10.11Q39.55 10.16 39.83 10.54L39.83 10.54L39.83 10.54Q40.11 10.91 40.11 10.92L40.11 10.92L40.11 10.92Q40.11 11.38 39.19 12.17L39.19 12.17L39.19 12.17Q38.37 12.85 38.12 12.91L38.12 12.91L38.12 12.91Q37.73 12.38 37.41 12.07L37.41 12.07L37.41 8.60L37.41 8.60Q37.41 8.54 37.37 8.48L37.37 8.48L37.37 8.48Q37.34 8.43 37.34 8.39L37.34 8.39L37.34 6.90L37.34 6.90Q36.55 6.23 36.51 6.23L36.51 6.23L36.51 6.23Q36.48 6.23 35.94 6.55L35.94 6.55L35.74 6.50L35.74 6.50Q35.84 6.16 36.72 5.19L36.72 5.19L36.72 5.19Q37.73 4.09 38.26 4.09L38.26 4.09L38.26 4.09Q38.36 4.09 38.79 4.44L38.79 4.44L38.79 4.44Q39.07 4.68 39.37 4.90L39.37 4.90L39.37 4.90Q39.37 5.21 39.41 5.87L39.41 5.87L39.41 5.87Q40.56 4.68 41.79 4.00L41.79 4.00L41.79 4.00Q42.06 4.58 42.43 4.80L42.43 4.80L42.43 4.80Q42.76 4.97 43.34 4.97L43.34 4.97L43.34 4.97Q43.57 4.97 43.78 4.87L43.78 4.87L43.78 4.87Q44.04 4.70 44.32 4.54L44.32 4.54ZM64.02 9.41L64.23 9.45L64.23 9.45Q64.22 10.01 63.08 11.05L63.08 11.05L63.08 11.05Q61.94 12.08 61.18 12.22L61.18 12.22L61.18 12.22Q61.14 12.22 60.98 12.32L60.98 12.32L60.98 12.32Q60.83 12.42 60.77 12.42L60.77 12.42L59.11 12.42L59.11 12.42Q58.90 12.42 58.30 11.93L58.30 11.93L58.30 11.93Q57.78 11.49 57.58 11.26L57.58 11.26L57.58 11.26Q56.98 10.50 55.93 9.07L55.93 9.07L55.93 9.07Q55.61 9.21 55.50 9.46L55.50 9.46L55.50 9.46Q55.43 9.65 55.45 10.04L55.45 10.04L55.45 10.04Q55.61 10.14 55.99 10.51L55.99 10.51L55.99 10.51Q56.43 10.98 56.43 11.12L56.43 11.12L56.43 11.12Q56.43 11.59 55.36 12.52L55.36 12.52L55.36 12.52Q54.35 13.37 54.08 13.37L54.08 13.37L54.08 13.37Q53.06 12.43 53.06 11.96L53.06 11.96L53.06 11.96Q53.06 11.84 53.13 11.58L53.13 11.58L53.13 11.58Q53.20 11.33 53.20 11.13L53.20 11.13L53.20 5.21L53.20 5.21Q53.20 4.65 52.96 4.42L52.96 4.42L52.96 4.42Q52.49 4.00 52.01 3.58L52.01 3.58L52.01 3.58Q51.70 3.79 51.28 4.02L51.28 4.02L51.03 3.96L51.03 3.96Q51.27 3.16 52.35 2.17L52.35 2.17L52.35 2.17Q53.44 1.18 54.19 1.18L54.19 1.18L54.19 1.18Q54.25 1.18 54.75 1.58L54.75 1.58L54.75 1.58Q55.26 1.99 55.47 2.23L55.47 2.23L55.47 2.23Q55.86 1.75 56.38 1.25L56.38 1.25L56.38 1.25Q57.19 0.45 57.53 0.45L57.53 0.45L57.53 0.45Q58.18 0.45 59.16 0.92L59.16 0.92L59.16 0.92Q60.21 1.43 60.45 1.97L60.45 1.97L60.45 1.97Q60.69 2.52 60.69 3.12L60.69 3.12L60.69 3.12Q60.69 4.03 60.02 5.04L60.02 5.04L60.02 5.04Q59.53 5.77 58.39 6.92L58.39 6.92L58.39 6.92Q59.84 8.89 60.06 9.11L60.06 9.11L60.06 9.11Q60.97 10.05 62.08 10.05L62.08 10.05L62.08 10.05Q62.71 10.05 62.90 9.98L62.90 9.98L62.90 9.98Q63.46 9.69 64.02 9.41L64.02 9.41ZM58.32 5.29L58.32 5.29L58.32 5.29Q58.32 4.41 57.49 3.67L57.49 3.67L57.49 3.67Q56.66 2.93 55.75 2.93L55.75 2.93L55.57 2.93L55.57 8.16L55.57 8.16Q55.92 7.81 56.76 7.22L56.76 7.22L56.76 7.22Q57.55 6.65 57.85 6.34L57.85 6.34L57.85 6.34Q58.32 5.84 58.32 5.29ZM71.29 9.81L71.29 9.81L71.29 9.81Q71.29 10.32 69.96 11.31L69.96 11.31L69.96 11.31Q68.81 12.17 68.46 12.26L68.46 12.26L68.46 12.26Q67.93 12.42 67.58 12.42L67.58 12.42L67.58 12.42Q67.21 12.42 66.37 12.16L66.37 12.16L66.37 12.16Q65.52 11.90 65.25 11.69L65.25 11.69L65.25 11.69Q64.41 11.03 64.41 9.41L64.41 9.41L64.41 9.41Q64.41 6.57 68.18 4.51L68.18 4.51L68.18 4.51Q68.28 4.69 68.73 4.87L68.73 4.87L68.73 4.87Q69.19 5.05 69.66 5.05L69.66 5.05L69.66 5.05Q69.93 5.05 70.06 4.96L70.06 4.96L70.06 4.96Q70.24 4.83 70.48 4.76L70.48 4.76L70.48 4.76Q70.53 4.82 70.53 4.89L70.53 4.89L70.53 4.89Q70.53 5.05 70.14 5.52L70.14 5.52L70.14 5.52Q68.96 6.89 68.01 6.89L68.01 6.89L68.01 6.89Q67.75 6.89 67.26 6.76L67.26 6.76L67.26 6.76Q66.72 6.62 66.53 6.48L66.53 6.48L66.53 6.48Q66.43 6.66 66.29 7.08L66.29 7.08L66.30 8.04L66.30 8.04Q66.32 8.01 66.62 7.79L66.62 7.79L66.62 7.79Q66.92 7.57 67.02 7.57L67.02 7.57L67.02 7.57Q68.07 7.78 68.15 7.78L68.15 7.78L68.15 7.78Q69.09 7.78 69.52 7.49L69.52 7.49L69.52 7.49Q70.27 6.99 70.59 6.87L70.59 6.87L70.63 7.01L70.63 7.01Q69.97 8.08 68.94 8.81L68.94 8.81L68.94 8.81Q67.90 9.55 66.89 9.65L66.89 9.65L66.89 9.65Q67.03 9.91 67.84 10.25L67.84 10.25L67.84 10.25Q68.66 10.58 69.23 10.58L69.23 10.58L69.23 10.58Q69.79 10.58 70.24 10.28L70.24 10.28L70.24 10.28Q70.91 9.81 71.23 9.69L71.23 9.69L71.23 9.69Q71.29 9.74 71.29 9.81ZM80.54 10.44L80.54 10.44L80.54 10.44Q80.43 10.77 79.62 11.68L79.62 11.68L79.62 11.68Q78.74 12.68 78.33 12.68L78.33 12.68L78.33 12.68Q78.27 12.68 77.66 12.11L77.66 12.11L77.66 12.11Q77 11.51 76.97 11.28L76.97 11.28L76.97 11.28Q76.61 11.76 75.70 12.22L75.70 12.22L75.70 12.22Q74.79 12.68 74.27 12.68L74.27 12.68L74.27 12.68Q73.39 12.68 72.79 11.89L72.79 11.89L72.79 11.89Q72.27 11.20 72.27 10.46L72.27 10.46L72.27 10.46Q72.27 8.64 73.91 6.72L73.91 6.72L73.91 6.72Q75.36 5.01 76.66 4.65L76.66 4.65L76.66 4.65Q76.71 4.63 76.86 4.55L76.86 4.55L76.86 4.55Q77.01 4.47 77.07 4.47L77.07 4.47L77.07 4.47Q77.06 4.47 77.47 4.75L77.47 4.75L77.47 4.75Q77.88 5.04 78.37 5.04L78.37 5.04L78.37 5.04Q78.89 5.04 79.11 4.93L79.11 4.93L79.11 4.93Q79.30 4.83 79.53 4.86L79.53 4.86L79.53 4.86Q79.58 5.19 78.89 5.85L78.89 5.85L78.89 7.04L78.89 7.04Q78.89 7.10 78.93 7.24L78.93 7.24L78.93 7.24Q78.97 7.38 78.97 7.42L78.97 7.42L78.97 9.59L78.97 9.59Q79.34 9.94 80.04 10.58L80.04 10.58L80.04 10.58Q80.42 10.42 80.54 10.44ZM77 10.39L77 10.39L77 9.37L77 9.37Q77 9.31 76.96 9.17L76.96 9.17L76.96 9.17Q76.92 9.03 76.92 8.99L76.92 8.99L76.92 7.07L76.92 7.07Q76.89 7.06 76.36 7.06L76.36 7.06L76.36 7.06Q76.10 7.06 75.73 6.79L75.73 6.79L75.73 6.79Q75.46 6.59 75.19 6.40L75.19 6.40L75.19 6.40Q74.76 6.62 74.48 7.42L74.48 7.42L74.48 7.42Q74.24 8.09 74.24 8.67L74.24 8.67L74.24 8.67Q74.24 9.31 74.72 9.95L74.72 9.95L74.72 9.95Q75.26 10.71 76.03 10.71L76.03 10.71L76.03 10.71Q76.34 10.71 77 10.39ZM86.10 9.95L86.10 9.95L86.10 9.95Q86.10 10.51 84.95 11.61L84.95 11.61L84.95 11.61Q83.87 12.61 83.57 12.66L83.57 12.66L83.57 12.66Q83.47 12.53 82.94 12.11L82.94 12.11L82.94 12.11Q82.64 11.87 82.64 11.55L82.64 11.55L82.64 7.41L82.64 7.41Q82.64 7.38 82.68 7.19L82.68 7.19L82.68 7.19Q82.73 7.00 82.73 6.94L82.73 6.94L82.73 3.92L82.73 3.92Q82.52 3.61 82.33 3.44L82.33 3.44L82.33 3.44Q81.90 3.74 81.47 3.93L81.47 3.93L81.47 3.93Q81.41 3.88 81.41 3.75L81.41 3.75L81.41 3.75Q81.41 3.30 82.49 2.24L82.49 2.24L82.49 2.24Q83.57 1.18 84.03 1.18L84.03 1.18L84.03 1.18Q84.15 1.18 84.49 1.48L84.49 1.48L84.49 1.48Q84.83 1.79 84.83 1.93L84.83 1.93L84.83 5.28L84.83 5.28Q84.83 5.32 84.78 5.43L84.78 5.43L84.78 5.43Q84.74 5.54 84.74 5.60L84.74 5.60L84.74 9.59L84.74 9.59Q84.74 9.72 84.95 9.97L84.95 9.97L84.95 9.97Q85.16 10.22 85.30 10.22L85.30 10.22L85.30 10.22Q85.33 10.22 85.60 10.04L85.60 10.04L85.60 10.04Q85.86 9.87 86.04 9.81L86.04 9.81L86.04 9.81Q86.10 9.87 86.10 9.95ZM93.32 5.14L93.51 5.19L93.51 5.19Q93.44 5.73 92.55 6.50L92.55 6.50L92.55 6.50Q91.66 7.28 91.01 7.43L91.01 7.43L91.01 9.17L91.01 9.17Q91.01 9.35 90.85 10.02L90.85 10.02L90.85 10.02Q90.51 11.40 90.16 12.07L90.16 12.07L90.16 12.07Q89.47 13.38 88.26 13.85L88.26 13.85L88.26 13.85Q88.33 13.72 88.72 12.47L88.72 12.47L88.72 12.47Q89.12 11.13 89.12 10.79L89.12 10.79L89.12 7.21L89.12 7.21Q88.76 7.00 88.34 7.00L88.34 7.00L88.34 7.00Q87.98 7.00 87.63 7.15L87.63 7.15L87.63 7.15Q87.54 7.18 86.95 7.52L86.95 7.52L86.77 7.46L86.77 7.46Q86.84 7.00 87.67 6.26L87.67 6.26L87.67 6.26Q88.38 5.61 89.05 5.26L89.05 5.26L89.05 3.84L89.05 3.84Q89.05 3.78 88.74 3.48L88.74 3.48L88.74 3.48Q88.42 3.18 88.38 3.18L88.38 3.18L88.38 3.18Q88.35 3.18 88.20 3.26L88.20 3.26L88.20 3.26Q88.05 3.35 87.88 3.32L87.88 3.32L87.88 3.32Q87.99 2.98 88.76 2.13L88.76 2.13L88.76 2.13Q89.61 1.18 90.03 1.18L90.03 1.18L90.03 1.18Q90.10 1.18 90.93 2.00L90.93 2.00L90.93 4.76L90.93 4.76Q90.93 5.31 91.32 5.46L91.32 5.46L91.32 5.46Q91.52 5.54 92.09 5.54L92.09 5.54L92.09 5.54Q92.50 5.54 92.60 5.52L92.60 5.52L92.60 5.52Q92.69 5.49 93.32 5.14L93.32 5.14ZM104.68 10.21L104.68 10.21L104.68 10.21Q104.68 11.24 104.40 11.69L104.40 11.69L104.40 11.69Q103.70 12.77 102.52 13.89L102.52 13.89L102.52 13.89Q101.07 15.27 100.18 15.27L100.18 15.27L100.18 15.27Q100.13 15.27 98.34 14.86L98.34 14.86L98.34 14.86Q96.56 14.45 95.77 14.45L95.77 14.45L95.77 14.45Q95.00 14.45 94.89 14.59L94.89 14.59L94.89 14.59Q94.74 14.81 94.30 14.90L94.30 14.90L94.30 14.90Q94.26 14.85 94.26 14.77L94.26 14.77L94.26 14.77Q94.26 14.34 95.37 13.43L95.37 13.43L95.37 13.43Q96.43 12.56 96.81 12.53L96.81 12.53L96.81 12.53Q97.02 12.52 97.51 12.52L97.51 12.52L97.51 12.52Q98.38 12.52 100.11 12.94L100.11 12.94L100.11 12.94Q101.85 13.36 101.95 13.36L101.95 13.36L101.95 13.36Q102.76 13.36 102.76 11.94L102.76 11.94L102.76 11.94Q102.76 11.35 102.48 10.77L102.48 10.77L102.48 10.77Q102.07 9.91 101.32 9.91L101.32 9.91L101.32 9.91Q101.00 9.91 100.67 10.03L100.67 10.03L100.67 10.03Q100.35 10.15 100.34 10.15L100.34 10.15L100.34 10.15Q100.30 10.15 100.28 10.13L100.28 10.13L100.28 10.13Q100.25 10.11 100.21 10.11L100.21 10.11L100.21 10.11Q100.21 10.11 99.74 10.49L99.74 10.49L99.74 10.49Q99.18 10.93 98.63 11.20L98.63 11.20L98.63 11.20Q97.85 11.58 97.12 11.58L97.12 11.58L97.12 11.58Q94.68 11.58 94.68 9.23L94.68 9.23L94.68 9.23Q94.68 8.48 95.07 7.69L95.07 7.69L95.07 7.69Q95.34 7.14 96.11 6.01L96.11 6.01L96.11 6.01Q96.10 5.99 94.99 5.99L94.99 5.99L94.99 5.99Q94.95 5.94 94.95 5.87L94.95 5.87L94.95 5.87Q94.95 5.47 95.79 4.76L95.79 4.76L95.79 4.76Q96.52 4.13 96.77 4.07L96.77 4.07L98.62 4.12L98.62 4.12Q98.27 4.68 97.17 5.91L97.17 5.91L97.17 5.91Q96.60 6.55 96.60 7.42L96.60 7.42L96.60 7.42Q96.60 9.66 98.85 9.66L98.85 9.66L98.85 9.66Q99.33 9.66 100.18 9.28L100.18 9.28L100.18 6.40L100.18 6.40Q100.18 6.37 100.15 6.20L100.15 6.20L100.15 6.20Q100.11 6.03 100.11 5.95L100.11 5.95L100.11 5.95Q99.90 5.88 99.36 5.57L99.36 5.57L99.36 5.57Q99.39 5.29 100.07 4.48L100.07 4.48L100.07 4.48Q100.80 3.61 101.21 3.61L101.21 3.61L101.21 3.61Q101.19 3.61 102.02 4.12L102.02 4.12L102.02 4.12Q102.07 4.68 102.07 5.43L102.07 5.43L102.10 8.11L102.10 8.11Q103.05 7.99 103.05 7.99L103.05 7.99L103.05 7.99Q103.91 7.99 104.36 8.86L104.36 8.86L104.36 8.86Q104.68 9.49 104.68 10.21Z"></path></g><!----><g data-v-423bf9ae="" id="e6fcf335-8652-4415-a74c-88b72520aff1" transform="matrix(1.9480520767312368,0,0,1.9480520767312368,-0.8532469029630931,-0.8532469029630931)" stroke="none" fill="#ffffff"><path d="M16 47.1c-1 0-1.9-.2-2.7-.7-5.3-3-4.8-15.2 1.1-27.8C19.4 8.2 26.6.9 32 .9c1 0 1.9.2 2.7.7 5.3 3 4.8 15.2-1.1 27.8-5 10.4-12.2 17.7-17.6 17.7zM32 2.8c-4.6 0-11.3 7-15.8 16.7-5.9 12.4-5.7 23.1-1.9 25.3.5.3 1.1.4 1.7.4 4.6 0 11.3-7 15.8-16.7 5.9-12.4 5.7-23.1 1.9-25.3-.5-.3-1.1-.4-1.7-.4z"></path><path d="M32 47.1c-5.4 0-12.6-7.3-17.6-17.8C8.5 16.8 8 4.6 13.3 1.6c.8-.5 1.7-.7 2.7-.7 5.4 0 12.6 7.3 17.6 17.8 5.9 12.6 6.4 24.8 1.1 27.8-.8.4-1.7.6-2.7.6zM16 2.8c-.6 0-1.2.1-1.7.4-3.8 2.2-4 12.9 1.9 25.3 4.6 9.7 11.2 16.7 15.8 16.7.6 0 1.2-.1 1.7-.4 3.8-2.2 4-12.9-1.9-25.3C27.3 9.8 20.6 2.8 16 2.8z"></path><path d="M24 35.7C11 35.7.9 30.6.9 24S11 12.3 24 12.3 47.1 17.4 47.1 24 37 35.7 24 35.7zm0-21.5c-11.5 0-21.2 4.5-21.2 9.8s9.7 9.8 21.2 9.8 21.2-4.5 21.2-9.8-9.7-9.8-21.2-9.8z"></path><circle cx="42.5" cy="17.7" r="3.2"></circle><circle cx="24" cy="24" r="6"></circle><g><circle cx="9.9" cy="9.2" r="3.2"></circle></g><g><circle cx="37.2" cy="39.3" r="3.2"></circle></g></g><!----></svg>