<svg data-v-423bf9ae="" xmlns="http://www.w3.org/2000/svg" viewBox="0 0 60 60" class="icon"><!----><!----><!----><!----><g data-v-423bf9ae="" id="260a2d7b-85a2-4c51-8931-5d14d14da76c" transform="matrix(1.2987013844874913,0,0,1.2987013844874913,-1.1688313520885671,-1.1688313520885671)" stroke="none" fill="black"><path d="M16 47.1c-1 0-1.9-.2-2.7-.7-5.3-3-4.8-15.2 1.1-27.8C19.4 8.2 26.6.9 32 .9c1 0 1.9.2 2.7.7 5.3 3 4.8 15.2-1.1 27.8-5 10.4-12.2 17.7-17.6 17.7zM32 2.8c-4.6 0-11.3 7-15.8 16.7-5.9 12.4-5.7 23.1-1.9 25.3.5.3 1.1.4 1.7.4 4.6 0 11.3-7 15.8-16.7 5.9-12.4 5.7-23.1 1.9-25.3-.5-.3-1.1-.4-1.7-.4z"></path><path d="M32 47.1c-5.4 0-12.6-7.3-17.6-17.8C8.5 16.8 8 4.6 13.3 1.6c.8-.5 1.7-.7 2.7-.7 5.4 0 12.6 7.3 17.6 17.8 5.9 12.6 6.4 24.8 1.1 27.8-.8.4-1.7.6-2.7.6zM16 2.8c-.6 0-1.2.1-1.7.4-3.8 2.2-4 12.9 1.9 25.3 4.6 9.7 11.2 16.7 15.8 16.7.6 0 1.2-.1 1.7-.4 3.8-2.2 4-12.9-1.9-25.3C27.3 9.8 20.6 2.8 16 2.8z"></path><path d="M24 35.7C11 35.7.9 30.6.9 24S11 12.3 24 12.3 47.1 17.4 47.1 24 37 35.7 24 35.7zm0-21.5c-11.5 0-21.2 4.5-21.2 9.8s9.7 9.8 21.2 9.8 21.2-4.5 21.2-9.8-9.7-9.8-21.2-9.8z"></path><circle cx="42.5" cy="17.7" r="3.2"></circle><circle cx="24" cy="24" r="6"></circle><g><circle cx="9.9" cy="9.2" r="3.2"></circle></g><g><circle cx="37.2" cy="39.3" r="3.2"></circle></g></g><!----></svg>